<mxfile host="app.diagrams.net" modified="2024-02-28T04:47:27.384Z" agent="Mozilla/5.0 (Windows NT 10.0; Win64; x64) AppleWebKit/537.36 (KHTML, like Gecko) Chrome/109.0.0.0 Safari/537.36" etag="-Mkk_7zHGUJyOrhK51KC" version="23.1.7" type="github">
  <diagram name="Страница — 1" id="ON9jIXmLFdY-JA6jbj7x">
    <mxGraphModel dx="1039" dy="549" grid="1" gridSize="10" guides="1" tooltips="1" connect="1" arrows="1" fold="1" page="1" pageScale="1" pageWidth="827" pageHeight="1169" math="0" shadow="0">
      <root>
        <mxCell id="0" />
        <mxCell id="1" parent="0" />
        <mxCell id="Kxh3nqHzC0chDsdKL4u2-1" value="Модуль расчета газа на собственные технологические нужды" style="rounded=0;whiteSpace=wrap;html=1;" vertex="1" parent="1">
          <mxGeometry x="150" y="130" width="120" height="60" as="geometry" />
        </mxCell>
        <mxCell id="Kxh3nqHzC0chDsdKL4u2-2" value="Модуль &amp;lt;Оперативный диспетчерский журнал&amp;gt;" style="rounded=0;whiteSpace=wrap;html=1;" vertex="1" parent="1">
          <mxGeometry x="150" y="260" width="120" height="60" as="geometry" />
        </mxCell>
        <mxCell id="Kxh3nqHzC0chDsdKL4u2-3" value="Модуль&lt;br&gt;&amp;lt;Крановый журнал&amp;gt;" style="rounded=0;whiteSpace=wrap;html=1;" vertex="1" parent="1">
          <mxGeometry x="150" y="380" width="120" height="60" as="geometry" />
        </mxCell>
        <mxCell id="Kxh3nqHzC0chDsdKL4u2-4" value="Специализированные модули" style="text;html=1;align=center;verticalAlign=middle;resizable=0;points=[];autosize=1;strokeColor=none;fillColor=none;" vertex="1" parent="1">
          <mxGeometry x="70" y="30" width="190" height="30" as="geometry" />
        </mxCell>
        <mxCell id="Kxh3nqHzC0chDsdKL4u2-42" style="edgeStyle=orthogonalEdgeStyle;rounded=0;orthogonalLoop=1;jettySize=auto;html=1;exitX=0;exitY=0.5;exitDx=0;exitDy=0;entryX=0.25;entryY=0;entryDx=0;entryDy=0;" edge="1" parent="1" source="Kxh3nqHzC0chDsdKL4u2-5" target="Kxh3nqHzC0chDsdKL4u2-13">
          <mxGeometry relative="1" as="geometry">
            <Array as="points">
              <mxPoint x="630" y="160" />
              <mxPoint x="630" y="550" />
              <mxPoint x="135" y="550" />
            </Array>
          </mxGeometry>
        </mxCell>
        <mxCell id="Kxh3nqHzC0chDsdKL4u2-5" value="Комплекс диспетчерских расчетов" style="whiteSpace=wrap;html=1;" vertex="1" parent="1">
          <mxGeometry x="707" y="130" width="120" height="60" as="geometry" />
        </mxCell>
        <mxCell id="Kxh3nqHzC0chDsdKL4u2-46" style="edgeStyle=orthogonalEdgeStyle;rounded=0;orthogonalLoop=1;jettySize=auto;html=1;exitX=0;exitY=0.5;exitDx=0;exitDy=0;entryX=0;entryY=0.75;entryDx=0;entryDy=0;" edge="1" parent="1" source="Kxh3nqHzC0chDsdKL4u2-6" target="Kxh3nqHzC0chDsdKL4u2-17">
          <mxGeometry relative="1" as="geometry">
            <Array as="points">
              <mxPoint x="630" y="290" />
              <mxPoint x="630" y="585" />
            </Array>
          </mxGeometry>
        </mxCell>
        <mxCell id="Kxh3nqHzC0chDsdKL4u2-6" value="Модуль обмена диспетчерскими сообщениями" style="whiteSpace=wrap;html=1;" vertex="1" parent="1">
          <mxGeometry x="707" y="260" width="120" height="60" as="geometry" />
        </mxCell>
        <mxCell id="Kxh3nqHzC0chDsdKL4u2-7" value="Модуль &amp;lt;Диспетчерские задания&amp;gt;" style="whiteSpace=wrap;html=1;" vertex="1" parent="1">
          <mxGeometry x="707" y="380" width="120" height="60" as="geometry" />
        </mxCell>
        <mxCell id="Kxh3nqHzC0chDsdKL4u2-10" value="Подсистема визуализации" style="rounded=0;whiteSpace=wrap;html=1;" vertex="1" parent="1">
          <mxGeometry x="350" y="600" width="120" height="60" as="geometry" />
        </mxCell>
        <mxCell id="Kxh3nqHzC0chDsdKL4u2-47" style="edgeStyle=orthogonalEdgeStyle;rounded=0;orthogonalLoop=1;jettySize=auto;html=1;exitX=0;exitY=0.5;exitDx=0;exitDy=0;entryX=0.75;entryY=0;entryDx=0;entryDy=0;" edge="1" parent="1" source="Kxh3nqHzC0chDsdKL4u2-11" target="Kxh3nqHzC0chDsdKL4u2-13">
          <mxGeometry relative="1" as="geometry" />
        </mxCell>
        <mxCell id="Kxh3nqHzC0chDsdKL4u2-11" value="Подсистема ручного ввода" style="whiteSpace=wrap;html=1;" vertex="1" parent="1">
          <mxGeometry x="350" y="720" width="120" height="60" as="geometry" />
        </mxCell>
        <mxCell id="Kxh3nqHzC0chDsdKL4u2-48" style="edgeStyle=orthogonalEdgeStyle;rounded=0;orthogonalLoop=1;jettySize=auto;html=1;exitX=0;exitY=0.5;exitDx=0;exitDy=0;entryX=0;entryY=0.75;entryDx=0;entryDy=0;" edge="1" parent="1" source="Kxh3nqHzC0chDsdKL4u2-12" target="Kxh3nqHzC0chDsdKL4u2-10">
          <mxGeometry relative="1" as="geometry">
            <Array as="points">
              <mxPoint x="350" y="830" />
              <mxPoint x="330" y="830" />
              <mxPoint x="330" y="645" />
            </Array>
          </mxGeometry>
        </mxCell>
        <mxCell id="Kxh3nqHzC0chDsdKL4u2-49" style="edgeStyle=orthogonalEdgeStyle;rounded=0;orthogonalLoop=1;jettySize=auto;html=1;exitX=0;exitY=0.5;exitDx=0;exitDy=0;entryX=1;entryY=0.5;entryDx=0;entryDy=0;" edge="1" parent="1" source="Kxh3nqHzC0chDsdKL4u2-12" target="Kxh3nqHzC0chDsdKL4u2-13">
          <mxGeometry relative="1" as="geometry">
            <mxPoint x="270" y="850" as="targetPoint" />
          </mxGeometry>
        </mxCell>
        <mxCell id="Kxh3nqHzC0chDsdKL4u2-12" value="Подсистема хранения данных в реальном времени" style="whiteSpace=wrap;html=1;" vertex="1" parent="1">
          <mxGeometry x="350" y="820" width="120" height="60" as="geometry" />
        </mxCell>
        <mxCell id="Kxh3nqHzC0chDsdKL4u2-39" style="edgeStyle=orthogonalEdgeStyle;rounded=0;orthogonalLoop=1;jettySize=auto;html=1;exitX=0.5;exitY=0;exitDx=0;exitDy=0;entryX=0;entryY=0.5;entryDx=0;entryDy=0;" edge="1" parent="1" source="Kxh3nqHzC0chDsdKL4u2-13" target="Kxh3nqHzC0chDsdKL4u2-10">
          <mxGeometry relative="1" as="geometry" />
        </mxCell>
        <mxCell id="Kxh3nqHzC0chDsdKL4u2-13" value="Подсистема хранения конфигурационных и исторических данных" style="whiteSpace=wrap;html=1;" vertex="1" parent="1">
          <mxGeometry x="105" y="820" width="120" height="60" as="geometry" />
        </mxCell>
        <mxCell id="Kxh3nqHzC0chDsdKL4u2-51" style="edgeStyle=orthogonalEdgeStyle;rounded=0;orthogonalLoop=1;jettySize=auto;html=1;entryX=0.5;entryY=1;entryDx=0;entryDy=0;" edge="1" parent="1" source="Kxh3nqHzC0chDsdKL4u2-14" target="Kxh3nqHzC0chDsdKL4u2-12">
          <mxGeometry relative="1" as="geometry" />
        </mxCell>
        <mxCell id="Kxh3nqHzC0chDsdKL4u2-14" value="Подсистема выполнения расчетов" style="whiteSpace=wrap;html=1;" vertex="1" parent="1">
          <mxGeometry x="105" y="970" width="120" height="60" as="geometry" />
        </mxCell>
        <mxCell id="Kxh3nqHzC0chDsdKL4u2-15" value="Подсистема формирования аварийных сообщений и событий" style="whiteSpace=wrap;html=1;" vertex="1" parent="1">
          <mxGeometry x="570" y="820" width="120" height="70" as="geometry" />
        </mxCell>
        <mxCell id="Kxh3nqHzC0chDsdKL4u2-16" value="Подсистема выдачи управляющих воздействий" style="whiteSpace=wrap;html=1;" vertex="1" parent="1">
          <mxGeometry x="730" y="825" width="120" height="60" as="geometry" />
        </mxCell>
        <mxCell id="Kxh3nqHzC0chDsdKL4u2-17" value="Модуль предоставленных данных производственным службам" style="whiteSpace=wrap;html=1;" vertex="1" parent="1">
          <mxGeometry x="730" y="540" width="120" height="60" as="geometry" />
        </mxCell>
        <mxCell id="Kxh3nqHzC0chDsdKL4u2-18" value="Подсистема разработки" style="whiteSpace=wrap;html=1;" vertex="1" parent="1">
          <mxGeometry x="730" y="640" width="120" height="60" as="geometry" />
        </mxCell>
        <mxCell id="Kxh3nqHzC0chDsdKL4u2-19" value="Подсистема администрации" style="whiteSpace=wrap;html=1;" vertex="1" parent="1">
          <mxGeometry x="730" y="730" width="120" height="60" as="geometry" />
        </mxCell>
        <mxCell id="Kxh3nqHzC0chDsdKL4u2-21" value="Подсистема сбора и передача данных" style="whiteSpace=wrap;html=1;" vertex="1" parent="1">
          <mxGeometry x="570" y="960" width="120" height="60" as="geometry" />
        </mxCell>
        <mxCell id="Kxh3nqHzC0chDsdKL4u2-23" value="Протоколы приема и передачи данных от систем нижнего уровня (АСУ ТП, САУ, УСО, СЛТМ и т.д)" style="text;html=1;align=center;verticalAlign=middle;resizable=0;points=[];autosize=1;strokeColor=none;fillColor=none;" vertex="1" parent="1">
          <mxGeometry x="290" y="1098" width="570" height="30" as="geometry" />
        </mxCell>
        <mxCell id="Kxh3nqHzC0chDsdKL4u2-24" value="Специализированные протоколы обмена данных" style="rounded=0;whiteSpace=wrap;html=1;" vertex="1" parent="1">
          <mxGeometry x="300" y="1170" width="280" height="60" as="geometry" />
        </mxCell>
        <mxCell id="Kxh3nqHzC0chDsdKL4u2-25" value="Modbus" style="rounded=0;whiteSpace=wrap;html=1;" vertex="1" parent="1">
          <mxGeometry x="600" y="1170" width="120" height="60" as="geometry" />
        </mxCell>
        <mxCell id="Kxh3nqHzC0chDsdKL4u2-26" value="ORC DA" style="rounded=0;whiteSpace=wrap;html=1;" vertex="1" parent="1">
          <mxGeometry x="740" y="1169" width="120" height="60" as="geometry" />
        </mxCell>
        <mxCell id="Kxh3nqHzC0chDsdKL4u2-35" value="" style="edgeStyle=orthogonalEdgeStyle;rounded=0;orthogonalLoop=1;jettySize=auto;html=1;" edge="1" parent="1" source="Kxh3nqHzC0chDsdKL4u2-27" target="Kxh3nqHzC0chDsdKL4u2-34">
          <mxGeometry relative="1" as="geometry" />
        </mxCell>
        <mxCell id="Kxh3nqHzC0chDsdKL4u2-27" value="Системные программное обеспечение" style="rounded=0;whiteSpace=wrap;html=1;fillColor=#0066CC;" vertex="1" parent="1">
          <mxGeometry x="60" y="1360" width="810" height="60" as="geometry" />
        </mxCell>
        <mxCell id="Kxh3nqHzC0chDsdKL4u2-36" value="" style="edgeStyle=orthogonalEdgeStyle;rounded=0;orthogonalLoop=1;jettySize=auto;html=1;" edge="1" parent="1" source="Kxh3nqHzC0chDsdKL4u2-31" target="Kxh3nqHzC0chDsdKL4u2-27">
          <mxGeometry relative="1" as="geometry" />
        </mxCell>
        <mxCell id="Kxh3nqHzC0chDsdKL4u2-31" value="" style="rounded=0;whiteSpace=wrap;html=1;strokeColor=#009900;fillColor=#009900;" vertex="1" parent="1">
          <mxGeometry x="60" y="1478" width="810" height="160" as="geometry" />
        </mxCell>
        <mxCell id="Kxh3nqHzC0chDsdKL4u2-33" value="Аппаратное обеспечение производства ПАО &amp;lt;Газпром автоматизации&amp;gt; или аналог" style="rounded=0;whiteSpace=wrap;html=1;" vertex="1" parent="1">
          <mxGeometry x="260" y="1540" width="430" height="60" as="geometry" />
        </mxCell>
        <mxCell id="Kxh3nqHzC0chDsdKL4u2-34" value="Аппаратное обеспечение" style="text;html=1;align=center;verticalAlign=middle;resizable=0;points=[];autosize=1;strokeColor=none;fillColor=none;" vertex="1" parent="1">
          <mxGeometry x="385" y="1490" width="160" height="30" as="geometry" />
        </mxCell>
        <mxCell id="Kxh3nqHzC0chDsdKL4u2-52" value="" style="whiteSpace=wrap;html=1;opacity=20;" vertex="1" parent="1">
          <mxGeometry x="250" y="1098" width="650" height="162" as="geometry" />
        </mxCell>
      </root>
    </mxGraphModel>
  </diagram>
</mxfile>
